<svg display="none"  xmlns="http://www.w3.org/2000/svg">

<symbol id="phone" viewBox="0 0 20 20">
<path d="M13.0406 16.5063C7.38544 15.0666 2.93352 10.6147 1.49383 4.95952C0.948815 2.81867 2.79098 0.999999 5.00012 0.999999L6.00012 1C6.55241 1 6.99486 1.44883 7.04934 1.99842C7.14138 2.92696 7.36044 3.81815 7.68889 4.65437L6.16961 6.17366C7.35213 8.6447 9.35542 10.648 11.8265 11.8305L13.3457 10.3112C14.182 10.6397 15.0732 10.8587 16.0017 10.9508C16.5513 11.0053 17.0001 11.4477 17.0001 12L17.0001 13C17.0001 15.2091 15.1815 17.0513 13.0406 16.5063Z"  stroke-width="1" stroke-linecap="round" stroke-linejoin="round" stroke="#ffffff" fill="#ffffff"/>
</symbol>

<symbol id="find" viewBox="0 0 20 20">
<path d="M11.15 11.06L14.075 14.025L16 15.95M11.1931 2.58187C13.525 4.91369 13.525 8.69432 11.1931 11.0261C8.86132 13.358 5.08069 13.358 2.74887 11.0261C0.417045 8.69432 0.417045 4.91369 2.74887 2.58187C5.08069 0.250053 8.86132 0.250053 11.1931 2.58187Z" stroke="#ffffff" stroke-width="1.5" stroke-linecap="round" stroke-linejoin="round" fill="transparent"/>
</symbol>

<symbol id="menu" viewBox="0 0 20 20">
<path  d="M3.5 4.99973H14.5027M5.5 9.0014H14.5027M1.49731 0.998047H14.5024" stroke="#ffffff" stroke-width="1.5" stroke-linecap="round" stroke-linejoin="round"/>
</symbol>

<symbol id="close" viewBox="0 0 20 20">
<path fill-rule="evenodd"  fill="rgb(255, 255, 255)"
 d="M9.788,7.985 L15.449,13.645 C15.884,14.80 15.884,14.786 15.449,15.221 C15.14,15.656 14.308,15.656 13.873,15.221 L8.212,9.560 L2.552,15.221 C2.117,15.656 1.411,15.656 0.976,15.221 C0.541,14.786 0.541,14.80 0.976,13.645 L6.637,7.985 L0.976,2.324 C0.541,1.889 0.541,1.183 0.976,0.748 C1.411,0.313 2.117,0.313 2.552,0.748 L8.212,6.409 L13.873,0.748 C14.308,0.313 15.14,0.313 15.449,0.748 C15.884,1.183 15.884,1.889 15.449,2.324 L9.788,7.985 Z"/>
</symbol>
</svg>
